<?xml version="1.0" encoding="utf-8"?>
<!-- Generator: Adobe Illustrator 25.2.0, SVG Export Plug-In . SVG Version: 6.00 Build 0)  -->
<svg version="1.1" id="Capa_1" xmlns="http://www.w3.org/2000/svg" xmlns:xlink="http://www.w3.org/1999/xlink" x="0px" y="0px"
	 viewBox="0 0 93.9 93.9" style="enable-background:new 0 0 93.9 93.9;" xml:space="preserve">
<style type="text/css">
	.st0{fill:#262525;}
</style>
<g>
	<path class="st0" d="M80.2,13.8c-18.3-18.3-48.1-18.3-66.4,0c-18.3,18.3-18.3,48.1,0,66.4c18.3,18.3,48.1,18.3,66.4,0
		S98.5,32.1,80.2,13.8z M44.1,83.1c-4.1,0-7-3.1-7-7.3c0-4.3,3-7.4,7.1-7.4c4.1,0,7,3,7,7.4C51.2,80.1,48.3,83.1,44.1,83.1z
		 M54.7,44.9c-4.2,4.9-5.8,9.1-5.5,14.1l0.1,2.5c0,0.1,0,0.1,0,0.2c0,0.6-0.5,1.1-1,1.1c0,0,0,0,0,0h-7.9c-0.5,0-1-0.4-1-1l-0.2-2.6
		c-0.7-6.1,1.5-12.2,6.5-18.2c4.3-5.1,6.8-8.9,6.8-13.1c0-4.8-3-7.5-8.5-7.6c-3.4,0-7.2,1.2-9.5,2.9c-0.3,0.2-0.6,0.3-0.9,0.2
		s-0.6-0.3-0.7-0.6l-2.4-6.4c-0.2-0.4,0-0.9,0.4-1.2c3.5-2.6,9.4-4.2,15-4.2c12.4,0,17.9,8,17.9,15.9C63.7,33.8,59.8,38.9,54.7,44.9
		z"/>
</g>
</svg>
